<svg width="29" height="37" viewBox="0 0 29 37" fill="none" xmlns="http://www.w3.org/2000/svg">
<path d="M12 18C11.4477 18 11 18.4477 11 19C11 19.5523 11.4477 20 12 20L12 18ZM28.7071 19.7071C29.0976 19.3166 29.0976 18.6834 28.7071 18.2929L22.3431 11.9289C21.9526 11.5384 21.3195 11.5384 20.9289 11.9289C20.5384 12.3195 20.5384 12.9526 20.9289 13.3431L26.5858 19L20.9289 24.6569C20.5384 25.0474 20.5384 25.6805 20.9289 26.0711C21.3195 26.4616 21.9526 26.4616 22.3431 26.0711L28.7071 19.7071ZM12 20L28 20L28 18L12 18L12 20Z" fill="#707070"/>
<path d="M15 28.6056V34C15 35.1046 14.1046 36 13 36H3C1.89543 36 1 35.1046 1 34V3C1 1.89543 1.89543 1 3 1H13C14.1046 1 15 1.89543 15 3V6.91549" stroke="#707070" stroke-width="2" stroke-linecap="round" stroke-linejoin="round"/>
</svg>
