<svg width="317" height="74" viewBox="0 0 317 74" fill="none" xmlns="http://www.w3.org/2000/svg">
<rect width="317" height="74" fill="white"/>
<path d="M85.2344 52V26.4062H92.793C95.5352 26.4062 97.6152 26.9746 99.0332 28.1113C100.451 29.2363 101.16 30.9004 101.16 33.1035C101.16 34.4277 100.797 35.582 100.07 36.5664C99.3555 37.5391 98.3711 38.2363 97.1172 38.6582C98.6055 38.9863 99.8008 39.7188 100.703 40.8555C101.617 41.9922 102.074 43.3047 102.074 44.793C102.074 47.0547 101.342 48.8242 99.877 50.1016C98.4238 51.3672 96.3965 52 93.7949 52H85.2344ZM87.3965 39.6953V50.1719H93.8828C95.7344 50.1719 97.1992 49.7031 98.2773 48.7656C99.3672 47.8164 99.9121 46.5039 99.9121 44.8281C99.9121 43.2461 99.3906 41.998 98.3477 41.084C97.3164 40.1582 95.8867 39.6953 94.0586 39.6953H87.3965ZM87.3965 37.8848H93.3027C95.1074 37.8496 96.502 37.4277 97.4863 36.6191C98.4824 35.7988 98.9805 34.6094 98.9805 33.0508C98.9805 31.4102 98.4648 30.2031 97.4336 29.4297C96.4141 28.6445 94.8672 28.252 92.793 28.252H87.3965V37.8848ZM126.227 40.5918C126.227 42.9473 125.816 45.0156 124.996 46.7969C124.188 48.5781 123.027 49.9492 121.516 50.9102C120.004 51.8711 118.258 52.3516 116.277 52.3516C113.289 52.3516 110.875 51.2852 109.035 49.1523C107.195 47.0078 106.275 44.1191 106.275 40.4863V37.8496C106.275 35.5176 106.686 33.4551 107.506 31.6621C108.338 29.8574 109.51 28.4746 111.021 27.5137C112.533 26.541 114.273 26.0547 116.242 26.0547C118.211 26.0547 119.945 26.5293 121.445 27.4785C122.957 28.4277 124.123 29.7695 124.943 31.5039C125.764 33.2383 126.191 35.248 126.227 37.5332V40.5918ZM124.064 37.8145C124.064 34.7324 123.367 32.3184 121.973 30.5723C120.578 28.8262 118.668 27.9531 116.242 27.9531C113.863 27.9531 111.965 28.832 110.547 30.5898C109.141 32.3359 108.438 34.7793 108.438 37.9199V40.5918C108.438 43.627 109.141 46.0352 110.547 47.8164C111.953 49.5859 113.863 50.4707 116.277 50.4707C118.727 50.4707 120.637 49.5977 122.008 47.8516C123.379 46.0938 124.064 43.6504 124.064 40.5215V37.8145ZM150.59 40.5918C150.59 42.9473 150.18 45.0156 149.359 46.7969C148.551 48.5781 147.391 49.9492 145.879 50.9102C144.367 51.8711 142.621 52.3516 140.641 52.3516C137.652 52.3516 135.238 51.2852 133.398 49.1523C131.559 47.0078 130.639 44.1191 130.639 40.4863V37.8496C130.639 35.5176 131.049 33.4551 131.869 31.6621C132.701 29.8574 133.873 28.4746 135.385 27.5137C136.896 26.541 138.637 26.0547 140.605 26.0547C142.574 26.0547 144.309 26.5293 145.809 27.4785C147.32 28.4277 148.486 29.7695 149.307 31.5039C150.127 33.2383 150.555 35.248 150.59 37.5332V40.5918ZM148.428 37.8145C148.428 34.7324 147.73 32.3184 146.336 30.5723C144.941 28.8262 143.031 27.9531 140.605 27.9531C138.227 27.9531 136.328 28.832 134.91 30.5898C133.504 32.3359 132.801 34.7793 132.801 37.9199V40.5918C132.801 43.627 133.504 46.0352 134.91 47.8164C136.316 49.5859 138.227 50.4707 140.641 50.4707C143.09 50.4707 145 49.5977 146.371 47.8516C147.742 46.0938 148.428 43.6504 148.428 40.5215V37.8145ZM161.805 39.291L158.201 42.8418V52H156.039V26.4062H158.201V40.2051L171.314 26.4062H174.039L163.316 37.7969L174.865 52H172.229L161.805 39.291ZM180.93 50.1719H193.568V52H178.75V26.4062H180.93V50.1719ZM211.902 44.8281H200.283L197.646 52H195.379L205.064 26.4062H207.121L216.807 52H214.557L211.902 44.8281ZM200.951 42.9824H211.217L206.084 29.043L200.951 42.9824ZM220.586 52V26.4062H228.145C230.887 26.4062 232.967 26.9746 234.385 28.1113C235.803 29.2363 236.512 30.9004 236.512 33.1035C236.512 34.4277 236.148 35.582 235.422 36.5664C234.707 37.5391 233.723 38.2363 232.469 38.6582C233.957 38.9863 235.152 39.7188 236.055 40.8555C236.969 41.9922 237.426 43.3047 237.426 44.793C237.426 47.0547 236.693 48.8242 235.229 50.1016C233.775 51.3672 231.748 52 229.146 52H220.586ZM222.748 39.6953V50.1719H229.234C231.086 50.1719 232.551 49.7031 233.629 48.7656C234.719 47.8164 235.264 46.5039 235.264 44.8281C235.264 43.2461 234.742 41.998 233.699 41.084C232.668 40.1582 231.238 39.6953 229.41 39.6953H222.748ZM222.748 37.8848H228.654C230.459 37.8496 231.854 37.4277 232.838 36.6191C233.834 35.7988 234.332 34.6094 234.332 33.0508C234.332 31.4102 233.816 30.2031 232.785 29.4297C231.766 28.6445 230.219 28.252 228.145 28.252H222.748V37.8848Z" fill="#2F8370"/>
<path d="M25.8636 74L81 0H0V74H25.8636Z" fill="#68BFAB"/>
<path d="M20.7548 74L65 0H0V74H20.7548Z" fill="#399580"/>
<path d="M15.3266 74L48 0H0V74H15.3266Z" fill="#2F8370"/>
</svg>
